<mxfile host="app.diagrams.net" modified="2023-10-13T17:16:24.205Z" agent="Mozilla/5.0 (X11; Linux x86_64) AppleWebKit/537.36 (KHTML, like Gecko) Chrome/118.0.0.0 Safari/537.36" etag="x6g63DsDv_9aNUSBvEj9" version="22.0.4" type="device" pages="2">
  <diagram name="Page-1" id="5f0bae14-7c28-e335-631c-24af17079c00">
    <mxGraphModel dx="1082" dy="1164" grid="1" gridSize="10" guides="1" tooltips="1" connect="1" arrows="1" fold="1" page="1" pageScale="1" pageWidth="1100" pageHeight="850" background="none" math="0" shadow="0">
      <root>
        <mxCell id="0" />
        <mxCell id="1" parent="0" />
        <mxCell id="39150e848f15840c-3" value="Borrow/Lending Pool" style="verticalAlign=top;align=left;spacingTop=8;spacingLeft=2;spacingRight=12;shape=cube;size=10;direction=south;fontStyle=4;html=1;rounded=0;shadow=0;comic=0;labelBackgroundColor=none;strokeWidth=1;fontFamily=Verdana;fontSize=12" parent="1" vertex="1">
          <mxGeometry x="370" y="410" width="260" height="150" as="geometry" />
        </mxCell>
        <mxCell id="N3YimbVKFhX_4SiUM1jl-1" value="NEAR/USDT loans" style="rounded=1;whiteSpace=wrap;html=1;" vertex="1" parent="1">
          <mxGeometry x="460" y="470" width="80" height="30" as="geometry" />
        </mxCell>
        <mxCell id="N3YimbVKFhX_4SiUM1jl-3" value="Deposit NEAR Collateral" style="text;html=1;align=center;verticalAlign=middle;resizable=0;points=[];autosize=1;strokeColor=none;fillColor=none;" vertex="1" parent="1">
          <mxGeometry x="170" y="600" width="150" height="30" as="geometry" />
        </mxCell>
        <mxCell id="N3YimbVKFhX_4SiUM1jl-5" value="Borrowers" style="shape=umlActor;verticalLabelPosition=bottom;verticalAlign=top;html=1;outlineConnect=0;" vertex="1" parent="1">
          <mxGeometry x="290" y="709" width="30" height="60" as="geometry" />
        </mxCell>
        <mxCell id="N3YimbVKFhX_4SiUM1jl-8" value="" style="endArrow=classic;html=1;rounded=0;entryX=0;entryY=0.5;entryDx=0;entryDy=0;" edge="1" parent="1" target="N3YimbVKFhX_4SiUM1jl-1">
          <mxGeometry width="50" height="50" relative="1" as="geometry">
            <mxPoint x="270" y="660" as="sourcePoint" />
            <mxPoint x="320" y="610" as="targetPoint" />
          </mxGeometry>
        </mxCell>
        <mxCell id="N3YimbVKFhX_4SiUM1jl-9" value="" style="endArrow=classic;html=1;rounded=0;exitX=0;exitY=1;exitDx=0;exitDy=0;" edge="1" parent="1" source="N3YimbVKFhX_4SiUM1jl-1">
          <mxGeometry width="50" height="50" relative="1" as="geometry">
            <mxPoint x="530" y="500" as="sourcePoint" />
            <mxPoint x="310" y="690.909090909091" as="targetPoint" />
          </mxGeometry>
        </mxCell>
        <mxCell id="N3YimbVKFhX_4SiUM1jl-10" value="Borrow USDT" style="text;html=1;align=center;verticalAlign=middle;resizable=0;points=[];autosize=1;strokeColor=none;fillColor=none;" vertex="1" parent="1">
          <mxGeometry x="350" y="620" width="100" height="30" as="geometry" />
        </mxCell>
        <mxCell id="N3YimbVKFhX_4SiUM1jl-12" value="Deposit USDT" style="text;html=1;align=center;verticalAlign=middle;resizable=0;points=[];autosize=1;strokeColor=none;fillColor=none;" vertex="1" parent="1">
          <mxGeometry x="610" y="640" width="100" height="30" as="geometry" />
        </mxCell>
        <mxCell id="N3YimbVKFhX_4SiUM1jl-15" value="Lenders" style="shape=umlActor;verticalLabelPosition=bottom;verticalAlign=top;html=1;outlineConnect=0;" vertex="1" parent="1">
          <mxGeometry x="779" y="696" width="30" height="60" as="geometry" />
        </mxCell>
        <mxCell id="N3YimbVKFhX_4SiUM1jl-16" value="Receive GRTS" style="text;html=1;align=center;verticalAlign=middle;resizable=0;points=[];autosize=1;strokeColor=none;fillColor=none;" vertex="1" parent="1">
          <mxGeometry x="690" y="590" width="100" height="30" as="geometry" />
        </mxCell>
        <mxCell id="N3YimbVKFhX_4SiUM1jl-20" value="" style="shape=umlActor;verticalLabelPosition=bottom;verticalAlign=top;html=1;outlineConnect=0;" vertex="1" parent="1">
          <mxGeometry x="250" y="670" width="30" height="60" as="geometry" />
        </mxCell>
        <mxCell id="N3YimbVKFhX_4SiUM1jl-21" value="" style="shape=umlActor;verticalLabelPosition=bottom;verticalAlign=top;html=1;outlineConnect=0;" vertex="1" parent="1">
          <mxGeometry x="260" y="680" width="30" height="60" as="geometry" />
        </mxCell>
        <mxCell id="N3YimbVKFhX_4SiUM1jl-22" value="" style="shape=umlActor;verticalLabelPosition=bottom;verticalAlign=top;html=1;outlineConnect=0;" vertex="1" parent="1">
          <mxGeometry x="270" y="690" width="30" height="60" as="geometry" />
        </mxCell>
        <mxCell id="N3YimbVKFhX_4SiUM1jl-23" value="" style="shape=umlActor;verticalLabelPosition=bottom;verticalAlign=top;html=1;outlineConnect=0;" vertex="1" parent="1">
          <mxGeometry x="280" y="700" width="30" height="60" as="geometry" />
        </mxCell>
        <mxCell id="N3YimbVKFhX_4SiUM1jl-24" value="" style="shape=umlActor;verticalLabelPosition=bottom;verticalAlign=top;html=1;outlineConnect=0;" vertex="1" parent="1">
          <mxGeometry x="740" y="660" width="30" height="60" as="geometry" />
        </mxCell>
        <mxCell id="N3YimbVKFhX_4SiUM1jl-25" value="" style="shape=umlActor;verticalLabelPosition=bottom;verticalAlign=top;html=1;outlineConnect=0;" vertex="1" parent="1">
          <mxGeometry x="750" y="670" width="30" height="60" as="geometry" />
        </mxCell>
        <mxCell id="N3YimbVKFhX_4SiUM1jl-26" value="" style="shape=umlActor;verticalLabelPosition=bottom;verticalAlign=top;html=1;outlineConnect=0;" vertex="1" parent="1">
          <mxGeometry x="760" y="680" width="30" height="60" as="geometry" />
        </mxCell>
        <mxCell id="N3YimbVKFhX_4SiUM1jl-27" value="" style="shape=umlActor;verticalLabelPosition=bottom;verticalAlign=top;html=1;outlineConnect=0;" vertex="1" parent="1">
          <mxGeometry x="770" y="690" width="30" height="60" as="geometry" />
        </mxCell>
        <mxCell id="N3YimbVKFhX_4SiUM1jl-28" value="" style="endArrow=classic;html=1;rounded=0;entryX=1;entryY=1;entryDx=0;entryDy=0;" edge="1" parent="1" source="N3YimbVKFhX_4SiUM1jl-24" target="N3YimbVKFhX_4SiUM1jl-1">
          <mxGeometry width="50" height="50" relative="1" as="geometry">
            <mxPoint x="530" y="500" as="sourcePoint" />
            <mxPoint x="580" y="450" as="targetPoint" />
          </mxGeometry>
        </mxCell>
        <mxCell id="N3YimbVKFhX_4SiUM1jl-29" value="" style="endArrow=classic;html=1;rounded=0;exitX=1;exitY=0.5;exitDx=0;exitDy=0;entryX=0.5;entryY=0;entryDx=0;entryDy=0;entryPerimeter=0;" edge="1" parent="1" source="N3YimbVKFhX_4SiUM1jl-1" target="N3YimbVKFhX_4SiUM1jl-24">
          <mxGeometry width="50" height="50" relative="1" as="geometry">
            <mxPoint x="530" y="500" as="sourcePoint" />
            <mxPoint x="580" y="450" as="targetPoint" />
          </mxGeometry>
        </mxCell>
        <mxCell id="VCYN5BxfTDvzeruUeGpk-1" value="Base Case Protocol Operation State Machine" style="text;strokeColor=none;fillColor=none;html=1;fontSize=24;fontStyle=1;verticalAlign=middle;align=center;" vertex="1" parent="1">
          <mxGeometry x="190" y="350" width="600" height="40" as="geometry" />
        </mxCell>
      </root>
    </mxGraphModel>
  </diagram>
  <diagram id="YqKX4fHjVXoXxGtgM-4u" name="Page-2">
    <mxGraphModel dx="1082" dy="1164" grid="1" gridSize="10" guides="1" tooltips="1" connect="1" arrows="1" fold="1" page="1" pageScale="1" pageWidth="1100" pageHeight="850" math="0" shadow="0">
      <root>
        <mxCell id="0" />
        <mxCell id="1" parent="0" />
        <mxCell id="pZN_wZDpvpYa7H3pcOcD-1" value="Smart Contract State" style="verticalAlign=top;align=left;spacingTop=8;spacingLeft=2;spacingRight=12;shape=cube;size=10;direction=south;fontStyle=4;html=1;rounded=0;shadow=0;comic=0;labelBackgroundColor=none;strokeWidth=1;fontFamily=Verdana;fontSize=12" vertex="1" parent="1">
          <mxGeometry x="250" y="400" width="590" height="160" as="geometry" />
        </mxCell>
        <mxCell id="pZN_wZDpvpYa7H3pcOcD-2" value="NEAR/USDT&lt;br&gt;loans in good standing" style="rounded=1;whiteSpace=wrap;html=1;" vertex="1" parent="1">
          <mxGeometry x="290" y="500" width="130" height="50" as="geometry" />
        </mxCell>
        <mxCell id="pZN_wZDpvpYa7H3pcOcD-3" value="Deposit NEAR Collateral" style="text;html=1;align=center;verticalAlign=middle;resizable=0;points=[];autosize=1;strokeColor=none;fillColor=none;" vertex="1" parent="1">
          <mxGeometry x="130" y="600" width="150" height="30" as="geometry" />
        </mxCell>
        <mxCell id="pZN_wZDpvpYa7H3pcOcD-4" value="Borrowers" style="shape=umlActor;verticalLabelPosition=bottom;verticalAlign=top;html=1;outlineConnect=0;" vertex="1" parent="1">
          <mxGeometry x="290" y="709" width="30" height="60" as="geometry" />
        </mxCell>
        <mxCell id="pZN_wZDpvpYa7H3pcOcD-5" value="" style="endArrow=classic;html=1;rounded=0;entryX=0;entryY=0.5;entryDx=0;entryDy=0;" edge="1" parent="1" target="pZN_wZDpvpYa7H3pcOcD-2">
          <mxGeometry width="50" height="50" relative="1" as="geometry">
            <mxPoint x="270" y="660" as="sourcePoint" />
            <mxPoint x="320" y="610" as="targetPoint" />
          </mxGeometry>
        </mxCell>
        <mxCell id="pZN_wZDpvpYa7H3pcOcD-6" value="" style="endArrow=classic;html=1;rounded=0;exitX=0.25;exitY=1;exitDx=0;exitDy=0;" edge="1" parent="1" source="pZN_wZDpvpYa7H3pcOcD-2">
          <mxGeometry width="50" height="50" relative="1" as="geometry">
            <mxPoint x="530" y="500" as="sourcePoint" />
            <mxPoint x="310" y="690.909090909091" as="targetPoint" />
          </mxGeometry>
        </mxCell>
        <mxCell id="pZN_wZDpvpYa7H3pcOcD-7" value="Borrow USDT" style="text;html=1;align=center;verticalAlign=middle;resizable=0;points=[];autosize=1;strokeColor=none;fillColor=none;" vertex="1" parent="1">
          <mxGeometry x="309" y="608" width="100" height="30" as="geometry" />
        </mxCell>
        <mxCell id="pZN_wZDpvpYa7H3pcOcD-8" value="Deposit USDT" style="text;html=1;align=center;verticalAlign=middle;resizable=0;points=[];autosize=1;strokeColor=none;fillColor=none;" vertex="1" parent="1">
          <mxGeometry x="580" y="638" width="100" height="30" as="geometry" />
        </mxCell>
        <mxCell id="pZN_wZDpvpYa7H3pcOcD-9" value="Lenders" style="shape=umlActor;verticalLabelPosition=bottom;verticalAlign=top;html=1;outlineConnect=0;" vertex="1" parent="1">
          <mxGeometry x="779" y="696" width="30" height="60" as="geometry" />
        </mxCell>
        <mxCell id="pZN_wZDpvpYa7H3pcOcD-10" value="Receive GRTS" style="text;html=1;align=center;verticalAlign=middle;resizable=0;points=[];autosize=1;strokeColor=none;fillColor=none;" vertex="1" parent="1">
          <mxGeometry x="679" y="605" width="100" height="30" as="geometry" />
        </mxCell>
        <mxCell id="pZN_wZDpvpYa7H3pcOcD-11" value="" style="shape=umlActor;verticalLabelPosition=bottom;verticalAlign=top;html=1;outlineConnect=0;" vertex="1" parent="1">
          <mxGeometry x="250" y="670" width="30" height="60" as="geometry" />
        </mxCell>
        <mxCell id="pZN_wZDpvpYa7H3pcOcD-12" value="" style="shape=umlActor;verticalLabelPosition=bottom;verticalAlign=top;html=1;outlineConnect=0;" vertex="1" parent="1">
          <mxGeometry x="260" y="680" width="30" height="60" as="geometry" />
        </mxCell>
        <mxCell id="pZN_wZDpvpYa7H3pcOcD-13" value="" style="shape=umlActor;verticalLabelPosition=bottom;verticalAlign=top;html=1;outlineConnect=0;" vertex="1" parent="1">
          <mxGeometry x="270" y="690" width="30" height="60" as="geometry" />
        </mxCell>
        <mxCell id="pZN_wZDpvpYa7H3pcOcD-14" value="" style="shape=umlActor;verticalLabelPosition=bottom;verticalAlign=top;html=1;outlineConnect=0;" vertex="1" parent="1">
          <mxGeometry x="280" y="700" width="30" height="60" as="geometry" />
        </mxCell>
        <mxCell id="pZN_wZDpvpYa7H3pcOcD-15" value="" style="shape=umlActor;verticalLabelPosition=bottom;verticalAlign=top;html=1;outlineConnect=0;" vertex="1" parent="1">
          <mxGeometry x="740" y="660" width="30" height="60" as="geometry" />
        </mxCell>
        <mxCell id="pZN_wZDpvpYa7H3pcOcD-16" value="" style="shape=umlActor;verticalLabelPosition=bottom;verticalAlign=top;html=1;outlineConnect=0;" vertex="1" parent="1">
          <mxGeometry x="750" y="670" width="30" height="60" as="geometry" />
        </mxCell>
        <mxCell id="pZN_wZDpvpYa7H3pcOcD-17" value="" style="shape=umlActor;verticalLabelPosition=bottom;verticalAlign=top;html=1;outlineConnect=0;" vertex="1" parent="1">
          <mxGeometry x="760" y="680" width="30" height="60" as="geometry" />
        </mxCell>
        <mxCell id="pZN_wZDpvpYa7H3pcOcD-18" value="" style="shape=umlActor;verticalLabelPosition=bottom;verticalAlign=top;html=1;outlineConnect=0;" vertex="1" parent="1">
          <mxGeometry x="770" y="690" width="30" height="60" as="geometry" />
        </mxCell>
        <mxCell id="pZN_wZDpvpYa7H3pcOcD-19" value="" style="endArrow=classic;html=1;rounded=0;entryX=1;entryY=1;entryDx=0;entryDy=0;" edge="1" parent="1" source="pZN_wZDpvpYa7H3pcOcD-15" target="pZN_wZDpvpYa7H3pcOcD-2">
          <mxGeometry width="50" height="50" relative="1" as="geometry">
            <mxPoint x="530" y="500" as="sourcePoint" />
            <mxPoint x="580" y="450" as="targetPoint" />
          </mxGeometry>
        </mxCell>
        <mxCell id="pZN_wZDpvpYa7H3pcOcD-20" value="" style="endArrow=classic;html=1;rounded=0;exitX=1;exitY=0.5;exitDx=0;exitDy=0;entryX=0.5;entryY=0;entryDx=0;entryDy=0;entryPerimeter=0;" edge="1" parent="1" source="pZN_wZDpvpYa7H3pcOcD-2" target="pZN_wZDpvpYa7H3pcOcD-15">
          <mxGeometry width="50" height="50" relative="1" as="geometry">
            <mxPoint x="530" y="500" as="sourcePoint" />
            <mxPoint x="580" y="450" as="targetPoint" />
          </mxGeometry>
        </mxCell>
        <mxCell id="pZN_wZDpvpYa7H3pcOcD-23" value="" style="shape=actor;whiteSpace=wrap;html=1;" vertex="1" parent="1">
          <mxGeometry x="550" y="235" width="40" height="60" as="geometry" />
        </mxCell>
        <mxCell id="pZN_wZDpvpYa7H3pcOcD-24" value="Liquidation Bot" style="text;html=1;align=center;verticalAlign=middle;resizable=0;points=[];autosize=1;strokeColor=none;fillColor=none;" vertex="1" parent="1">
          <mxGeometry x="525" y="200" width="100" height="30" as="geometry" />
        </mxCell>
        <mxCell id="-5Ye7EwcBcriyA_6K1G1-1" value="Liquidation State Machine" style="text;strokeColor=none;fillColor=none;html=1;fontSize=24;fontStyle=1;verticalAlign=middle;align=center;" vertex="1" parent="1">
          <mxGeometry x="200" y="50" width="600" height="40" as="geometry" />
        </mxCell>
        <mxCell id="tQvXWcKD5aCFUEUxoBJ8-1" value="&lt;font size=&quot;1&quot; data-font-src=&quot;https://fonts.googleapis.com/css?family=bold&quot;&gt;&lt;b style=&quot;font-size: 14px;&quot;&gt;&lt;i style=&quot;&quot;&gt;loans below&amp;nbsp; liquidation MCR&lt;/i&gt;&lt;/b&gt;&lt;/font&gt;" style="ellipse;whiteSpace=wrap;html=1;strokeWidth=2;fillWeight=2;hachureGap=8;fillColor=#FF3333;fillStyle=dots;sketch=1;gradientColor=none;opacity=50;" vertex="1" parent="1">
          <mxGeometry x="419" y="420" width="120" height="60" as="geometry" />
        </mxCell>
        <mxCell id="tQvXWcKD5aCFUEUxoBJ8-2" value="Orderly Nework CLOB&amp;nbsp;" style="shape=cube;whiteSpace=wrap;html=1;boundedLbl=1;backgroundOutline=1;darkOpacity=0.05;darkOpacity2=0.1;size=10;" vertex="1" parent="1">
          <mxGeometry x="170" y="200" width="200" height="120" as="geometry" />
        </mxCell>
        <mxCell id="tQvXWcKD5aCFUEUxoBJ8-3" value="" style="endArrow=classic;html=1;rounded=0;exitX=1;exitY=0.392;exitDx=0;exitDy=0;exitPerimeter=0;entryX=0.25;entryY=0.2;entryDx=0;entryDy=0;entryPerimeter=0;" edge="1" parent="1" source="tQvXWcKD5aCFUEUxoBJ8-2" target="pZN_wZDpvpYa7H3pcOcD-23">
          <mxGeometry width="50" height="50" relative="1" as="geometry">
            <mxPoint x="800" y="350" as="sourcePoint" />
            <mxPoint x="850" y="300" as="targetPoint" />
          </mxGeometry>
        </mxCell>
        <mxCell id="tQvXWcKD5aCFUEUxoBJ8-4" value="" style="endArrow=classic;html=1;rounded=0;entryX=0;entryY=0;entryDx=200;entryDy=65;entryPerimeter=0;exitX=0.1;exitY=0.5;exitDx=0;exitDy=0;exitPerimeter=0;" edge="1" parent="1" source="pZN_wZDpvpYa7H3pcOcD-23" target="tQvXWcKD5aCFUEUxoBJ8-2">
          <mxGeometry width="50" height="50" relative="1" as="geometry">
            <mxPoint x="460" y="285" as="sourcePoint" />
            <mxPoint x="510" y="235" as="targetPoint" />
          </mxGeometry>
        </mxCell>
        <mxCell id="tQvXWcKD5aCFUEUxoBJ8-6" value="" style="endArrow=classic;html=1;rounded=0;entryX=0.5;entryY=1;entryDx=0;entryDy=0;exitX=0;exitY=0;exitDx=0;exitDy=0;" edge="1" parent="1" source="tQvXWcKD5aCFUEUxoBJ8-1" target="pZN_wZDpvpYa7H3pcOcD-23">
          <mxGeometry width="50" height="50" relative="1" as="geometry">
            <mxPoint x="450" y="410" as="sourcePoint" />
            <mxPoint x="500" y="360" as="targetPoint" />
          </mxGeometry>
        </mxCell>
        <mxCell id="tQvXWcKD5aCFUEUxoBJ8-7" value="3. Sell NEAR collateral" style="text;html=1;align=center;verticalAlign=middle;resizable=0;points=[];autosize=1;strokeColor=none;fillColor=none;" vertex="1" parent="1">
          <mxGeometry x="404" y="265" width="140" height="30" as="geometry" />
        </mxCell>
        <mxCell id="tQvXWcKD5aCFUEUxoBJ8-8" value="2. fetch loans in default" style="text;html=1;align=center;verticalAlign=middle;resizable=0;points=[];autosize=1;strokeColor=none;fillColor=none;" vertex="1" parent="1">
          <mxGeometry x="437" y="340" width="150" height="30" as="geometry" />
        </mxCell>
        <mxCell id="tQvXWcKD5aCFUEUxoBJ8-9" value="4. Receive USDT" style="text;html=1;align=center;verticalAlign=middle;resizable=0;points=[];autosize=1;strokeColor=none;fillColor=none;" vertex="1" parent="1">
          <mxGeometry x="400" y="223" width="120" height="30" as="geometry" />
        </mxCell>
        <mxCell id="VU5MerBD0r3HuNJz8bSm-1" value="USDT liquidity pool" style="rounded=1;whiteSpace=wrap;html=1;" vertex="1" parent="1">
          <mxGeometry x="600" y="480" width="120" height="40" as="geometry" />
        </mxCell>
        <mxCell id="rrd2jGlVmYNwabWXAMQK-2" value="" style="endArrow=classic;html=1;rounded=0;exitX=0;exitY=0;exitDx=0;exitDy=0;entryX=0;entryY=0.5;entryDx=0;entryDy=0;" edge="1" parent="1" source="pZN_wZDpvpYa7H3pcOcD-2" target="tQvXWcKD5aCFUEUxoBJ8-1">
          <mxGeometry relative="1" as="geometry">
            <mxPoint x="420" y="390" as="sourcePoint" />
            <mxPoint x="520" y="390" as="targetPoint" />
          </mxGeometry>
        </mxCell>
        <mxCell id="rrd2jGlVmYNwabWXAMQK-3" value="Label" style="edgeLabel;resizable=0;html=1;align=center;verticalAlign=middle;" connectable="0" vertex="1" parent="rrd2jGlVmYNwabWXAMQK-2">
          <mxGeometry relative="1" as="geometry" />
        </mxCell>
        <mxCell id="rrd2jGlVmYNwabWXAMQK-4" value="1. loan collateral falls below MCR" style="edgeLabel;html=1;align=center;verticalAlign=middle;resizable=0;points=[];" vertex="1" connectable="0" parent="rrd2jGlVmYNwabWXAMQK-2">
          <mxGeometry x="-0.0165" y="-2" relative="1" as="geometry">
            <mxPoint as="offset" />
          </mxGeometry>
        </mxCell>
        <mxCell id="rrd2jGlVmYNwabWXAMQK-5" value="USDT fees pool" style="rounded=1;whiteSpace=wrap;html=1;" vertex="1" parent="1">
          <mxGeometry x="697" y="421" width="120" height="40" as="geometry" />
        </mxCell>
        <mxCell id="rrd2jGlVmYNwabWXAMQK-6" value="" style="endArrow=classic;html=1;rounded=0;exitX=0.75;exitY=1;exitDx=0;exitDy=0;entryX=0.25;entryY=0;entryDx=0;entryDy=0;" edge="1" parent="1" source="pZN_wZDpvpYa7H3pcOcD-23" target="VU5MerBD0r3HuNJz8bSm-1">
          <mxGeometry relative="1" as="geometry">
            <mxPoint x="420" y="390" as="sourcePoint" />
            <mxPoint x="520" y="390" as="targetPoint" />
          </mxGeometry>
        </mxCell>
        <mxCell id="rrd2jGlVmYNwabWXAMQK-7" value="Label" style="edgeLabel;resizable=0;html=1;align=center;verticalAlign=middle;" connectable="0" vertex="1" parent="rrd2jGlVmYNwabWXAMQK-6">
          <mxGeometry relative="1" as="geometry" />
        </mxCell>
        <mxCell id="rrd2jGlVmYNwabWXAMQK-8" value="Text" style="edgeLabel;html=1;align=center;verticalAlign=middle;resizable=0;points=[];" vertex="1" connectable="0" parent="rrd2jGlVmYNwabWXAMQK-6">
          <mxGeometry x="-0.0097" y="2" relative="1" as="geometry">
            <mxPoint as="offset" />
          </mxGeometry>
        </mxCell>
        <mxCell id="rrd2jGlVmYNwabWXAMQK-9" value="5.a. Return the original USDT borrowed" style="edgeLabel;html=1;align=center;verticalAlign=middle;resizable=0;points=[];" vertex="1" connectable="0" parent="rrd2jGlVmYNwabWXAMQK-6">
          <mxGeometry x="-0.0132" y="-3" relative="1" as="geometry">
            <mxPoint as="offset" />
          </mxGeometry>
        </mxCell>
        <mxCell id="rrd2jGlVmYNwabWXAMQK-10" value="" style="endArrow=classic;html=1;rounded=0;exitX=0.75;exitY=1;exitDx=0;exitDy=0;entryX=0.75;entryY=0;entryDx=0;entryDy=0;" edge="1" parent="1" source="pZN_wZDpvpYa7H3pcOcD-23" target="rrd2jGlVmYNwabWXAMQK-5">
          <mxGeometry relative="1" as="geometry">
            <mxPoint x="420" y="390" as="sourcePoint" />
            <mxPoint x="520" y="390" as="targetPoint" />
          </mxGeometry>
        </mxCell>
        <mxCell id="rrd2jGlVmYNwabWXAMQK-12" value="5.b. Spread post liquidation &amp;amp; fees" style="edgeLabel;html=1;align=center;verticalAlign=middle;resizable=0;points=[];" vertex="1" connectable="0" parent="rrd2jGlVmYNwabWXAMQK-10">
          <mxGeometry x="-0.0112" y="2" relative="1" as="geometry">
            <mxPoint x="3" y="-13" as="offset" />
          </mxGeometry>
        </mxCell>
      </root>
    </mxGraphModel>
  </diagram>
</mxfile>
